<svg width="147" height="44" viewBox="0 0 147 44" fill="none" xmlns="http://www.w3.org/2000/svg">
<path d="M58.056 25.4H50.256L48.768 29H44.784L52.272 12.2H56.112L63.624 29H59.544L58.056 25.4ZM56.832 22.448L54.168 16.016L51.504 22.448H56.832ZM77.8766 16.088V29H74.3246V27.464C73.8286 28.024 73.2366 28.456 72.5486 28.76C71.8606 29.048 71.1166 29.192 70.3166 29.192C68.6206 29.192 67.2766 28.704 66.2846 27.728C65.2926 26.752 64.7966 25.304 64.7966 23.384V16.088H68.5406V22.832C68.5406 24.912 69.4126 25.952 71.1566 25.952C72.0526 25.952 72.7726 25.664 73.3166 25.088C73.8606 24.496 74.1326 23.624 74.1326 22.472V16.088H77.8766ZM94.4972 11.192V29H90.9212V27.512C89.9932 28.632 88.6492 29.192 86.8892 29.192C85.6732 29.192 84.5692 28.92 83.5772 28.376C82.6012 27.832 81.8332 27.056 81.2732 26.048C80.7132 25.04 80.4332 23.872 80.4332 22.544C80.4332 21.216 80.7132 20.048 81.2732 19.04C81.8332 18.032 82.6012 17.256 83.5772 16.712C84.5692 16.168 85.6732 15.896 86.8892 15.896C88.5372 15.896 89.8252 16.416 90.7532 17.456V11.192H94.4972ZM87.5372 26.12C88.4812 26.12 89.2652 25.8 89.8892 25.16C90.5132 24.504 90.8252 23.632 90.8252 22.544C90.8252 21.456 90.5132 20.592 89.8892 19.952C89.2652 19.296 88.4812 18.968 87.5372 18.968C86.5772 18.968 85.7852 19.296 85.1612 19.952C84.5372 20.592 84.2252 21.456 84.2252 22.544C84.2252 23.632 84.5372 24.504 85.1612 25.16C85.7852 25.8 86.5772 26.12 87.5372 26.12ZM110.61 22.592C110.61 22.64 110.586 22.976 110.538 23.6H100.77C100.946 24.4 101.362 25.032 102.018 25.496C102.674 25.96 103.49 26.192 104.466 26.192C105.138 26.192 105.73 26.096 106.242 25.904C106.77 25.696 107.258 25.376 107.706 24.944L109.698 27.104C108.482 28.496 106.706 29.192 104.37 29.192C102.914 29.192 101.626 28.912 100.506 28.352C99.3864 27.776 98.5224 26.984 97.9144 25.976C97.3064 24.968 97.0024 23.824 97.0024 22.544C97.0024 21.28 97.2984 20.144 97.8904 19.136C98.4984 18.112 99.3224 17.32 100.362 16.76C101.418 16.184 102.594 15.896 103.89 15.896C105.154 15.896 106.298 16.168 107.322 16.712C108.346 17.256 109.146 18.04 109.722 19.064C110.314 20.072 110.61 21.248 110.61 22.592ZM103.914 18.728C103.066 18.728 102.354 18.968 101.778 19.448C101.202 19.928 100.85 20.584 100.722 21.416H107.082C106.954 20.6 106.602 19.952 106.026 19.472C105.45 18.976 104.746 18.728 103.914 18.728ZM121.431 28.376C121.063 28.648 120.607 28.856 120.063 29C119.535 29.128 118.975 29.192 118.383 29.192C116.847 29.192 115.655 28.8 114.807 28.016C113.975 27.232 113.559 26.08 113.559 24.56V19.256H111.567V16.376H113.559V13.232H117.303V16.376H120.519V19.256H117.303V24.512C117.303 25.056 117.439 25.48 117.711 25.784C117.999 26.072 118.399 26.216 118.911 26.216C119.503 26.216 120.007 26.056 120.423 25.736L121.431 28.376ZM131.579 28.376C131.211 28.648 130.755 28.856 130.211 29C129.683 29.128 129.123 29.192 128.531 29.192C126.995 29.192 125.803 28.8 124.955 28.016C124.123 27.232 123.707 26.08 123.707 24.56V19.256H121.715V16.376H123.707V13.232H127.451V16.376H130.667V19.256H127.451V24.512C127.451 25.056 127.587 25.48 127.859 25.784C128.147 26.072 128.547 26.216 129.059 26.216C129.651 26.216 130.155 26.056 130.571 25.736L131.579 28.376ZM145.931 22.592C145.931 22.64 145.907 22.976 145.859 23.6H136.091C136.267 24.4 136.683 25.032 137.339 25.496C137.995 25.96 138.811 26.192 139.787 26.192C140.459 26.192 141.051 26.096 141.563 25.904C142.091 25.696 142.579 25.376 143.027 24.944L145.019 27.104C143.803 28.496 142.027 29.192 139.691 29.192C138.235 29.192 136.947 28.912 135.827 28.352C134.707 27.776 133.843 26.984 133.235 25.976C132.627 24.968 132.323 23.824 132.323 22.544C132.323 21.28 132.619 20.144 133.211 19.136C133.819 18.112 134.643 17.32 135.683 16.76C136.739 16.184 137.915 15.896 139.211 15.896C140.475 15.896 141.619 16.168 142.643 16.712C143.667 17.256 144.467 18.04 145.043 19.064C145.635 20.072 145.931 21.248 145.931 22.592ZM139.235 18.728C138.387 18.728 137.675 18.968 137.099 19.448C136.523 19.928 136.171 20.584 136.043 21.416H142.403C142.275 20.6 141.923 19.952 141.347 19.472C140.771 18.976 140.067 18.728 139.235 18.728Z" fill="#2F54EB"/>
<path fill-rule="evenodd" clip-rule="evenodd" d="M21.5328 43.3134C14.9311 43.3134 8.87455 40.9874 4.13513 37.1135L4.40748 34.1396C5.09197 31.0341 8.9332 29.6177 10.0891 28.2782C11.9396 22.6653 11.2512 14.4691 11.2512 14.4691C11.2512 14.4691 11.7576 16.0057 12.4016 16.7525C13.8898 22.1714 15.8923 23.6205 15.8923 23.6205C16.246 24.0111 16.5566 24.3181 16.7734 24.5164C17.5783 26.3737 16.8725 28.1637 16.7827 28.3769C16.7827 28.3769 18.1106 30.5331 21.4722 30.7123C21.4291 30.7145 21.3859 30.7165 21.3428 30.7184C21.3108 30.719 21.2901 30.7196 21.3024 30.7204C21.3157 30.7196 21.3293 30.719 21.3428 30.7184C21.3805 30.7178 21.437 30.7171 21.5062 30.7165V30.7299C21.5769 30.7299 21.6412 30.7234 21.7102 30.7217C21.7792 30.7234 21.8433 30.7299 21.914 30.7299V30.7137C25.3005 30.5471 26.6377 28.3768 26.6377 28.3768C26.5478 28.1636 25.8421 26.3736 26.647 24.5163C26.8638 24.3179 27.1744 24.011 27.5282 23.6204C27.5282 23.6204 29.5307 22.1713 31.0187 16.7524C31.6628 16.0056 32.1692 14.469 32.1692 14.469C32.1692 14.469 31.4808 22.6652 33.3313 28.2781C34.4872 29.6176 38.3284 31.034 39.0129 34.1395L39.2598 36.8357C34.473 40.8746 28.2894 43.3134 21.5328 43.3134ZM21.5633 30.7161C21.7465 30.7145 21.9508 30.7129 21.9141 30.7108V30.7138C21.8467 30.7171 21.7793 30.7201 21.7103 30.7218C21.6604 30.7206 21.6121 30.7181 21.5633 30.7161ZM21.5062 30.7138C21.525 30.7147 21.5443 30.7153 21.5632 30.7161C21.5439 30.7162 21.5247 30.7164 21.5062 30.7166V30.7138ZM21.5062 30.7108V30.7138C21.495 30.7132 21.4833 30.713 21.4721 30.7123C21.4835 30.7118 21.495 30.7115 21.5062 30.7108ZM22.7221 14.8481C26.7544 12.7504 30.8177 13.7395 30.8177 13.7395C31.0318 13.7724 31.7003 13.8482 30.5478 14.9868C29.7206 15.804 29.4616 17.6845 28.389 18.5903C27.7477 19.1317 25.7231 19.2884 24.2064 18.8674C22.8456 18.4896 22.8276 16.5599 21.7777 16.1666V16.1254C20.5915 16.3974 20.6309 18.474 19.2141 18.8674C17.6973 19.2885 15.6726 19.1317 15.0313 18.5903C13.9588 17.6844 13.6997 15.804 12.8724 14.9868C11.72 13.8482 12.3886 13.7724 12.6025 13.7395C12.6025 13.7395 16.6659 12.7504 20.6982 14.8481C21.1157 15.0654 21.4719 15.177 21.7776 15.2164V15.1944C22.0522 15.1422 22.3644 15.0342 22.7221 14.8481ZM24.1034 18.1981C25.0091 18.6979 28.0998 19.006 28.7506 17.2871C29.4441 15.4555 29.7383 14.3758 28.4994 14.1636C26.8321 13.878 23.9587 14.7784 23.4753 15.4651C22.992 16.1517 23.1977 17.6983 24.1034 18.1981ZM19.945 15.465C19.4617 14.7783 16.5882 13.878 14.9209 14.1635C13.682 14.3757 13.9762 15.4554 14.6697 17.2871C15.3205 19.0059 18.4113 18.6978 19.317 18.198C20.2227 17.6983 20.4284 16.1517 19.945 15.465ZM32.1692 11.9572C31.3601 11.8229 31.3009 12.4797 31.2488 12.8705C31.1966 13.2614 27.7175 11.489 27.3372 8.98859C27.3372 8.98859 26.1564 11.6512 18.3635 12.6422C17.8202 12.761 21.1884 11.8144 22.2751 10.1304C15.8647 13.3986 11.4824 12.9316 11.4607 12.8706C10.4097 8.6753 10.9049 0.0829468 22.0451 0.0829468C24.3269 0.0829468 33.1892 0.179155 32.1692 11.9572Z" fill="#2F54EB"/>
</svg>
