<?xml version="1.0" encoding="UTF-8"?>
<svg xmlns="http://www.w3.org/2000/svg" xmlns:xlink="http://www.w3.org/1999/xlink" width="1500pt" height="1499.999933pt" viewBox="0 0 1500 1499.999933" version="1.2">
<defs>
<clipPath id="clip1">
  <path d="M 575 204.191406 L 934 204.191406 L 934 1302.738281 L 575 1302.738281 Z M 575 204.191406 "/>
</clipPath>
<clipPath id="clip2">
  <path d="M 567 196.746094 L 926 196.746094 L 926 1295 L 567 1295 Z M 567 196.746094 "/>
</clipPath>
<clipPath id="clip3">
  <path d="M 875 196.746094 L 926 196.746094 L 926 404 L 875 404 Z M 875 196.746094 "/>
</clipPath>
<clipPath id="clip4">
  <path d="M 663 196.746094 L 813 196.746094 L 813 230 L 663 230 Z M 663 196.746094 "/>
</clipPath>
<clipPath id="clip5">
  <path d="M 1013 204.191406 L 1371.402344 204.191406 L 1371.402344 1302.738281 L 1013 1302.738281 Z M 1013 204.191406 "/>
</clipPath>
<clipPath id="clip6">
  <path d="M 1005 196.746094 L 1364 196.746094 L 1364 1295 L 1005 1295 Z M 1005 196.746094 "/>
</clipPath>
<clipPath id="clip7">
  <path d="M 1005 196.746094 L 1364 196.746094 L 1364 757 L 1005 757 Z M 1005 196.746094 "/>
</clipPath>
<clipPath id="clip8">
  <path d="M 1005 196.746094 L 1251 196.746094 L 1251 405 L 1005 405 Z M 1005 196.746094 "/>
</clipPath>
<clipPath id="clip9">
  <path d="M 137 204.191406 L 495.550781 204.191406 L 495.550781 1302.738281 L 137 1302.738281 Z M 137 204.191406 "/>
</clipPath>
<clipPath id="clip10">
  <path d="M 129 196.746094 L 488 196.746094 L 488 1295 L 129 1295 Z M 129 196.746094 "/>
</clipPath>
<clipPath id="clip11">
  <path d="M 452 196.746094 L 488 196.746094 L 488 599 L 452 599 Z M 452 196.746094 "/>
</clipPath>
<clipPath id="clip12">
  <path d="M 225 196.746094 L 375 196.746094 L 375 230 L 225 230 Z M 225 196.746094 "/>
</clipPath>
</defs>
<g id="surface1">
<g clip-path="url(#clip1)" clip-rule="nonzero">
<path style=" stroke:none;fill-rule:nonzero;fill:rgb(80.389404%,79.998779%,79.219055%);fill-opacity:1;" d="M 933.40625 1302.777344 L 575.035156 1302.777344 L 575.035156 1294.808594 L 925.441406 1294.808594 L 925.441406 204.703125 L 933.40625 204.703125 L 933.40625 1302.777344 "/>
</g>
<g clip-path="url(#clip2)" clip-rule="nonzero">
<path style=" stroke:none;fill-rule:nonzero;fill:rgb(96.078491%,96.078491%,96.078491%);fill-opacity:1;" d="M 567.070312 1294.808594 L 925.441406 1294.808594 L 925.441406 196.746094 L 567.070312 196.746094 Z M 567.070312 1294.808594 "/>
</g>
<path style=" stroke:none;fill-rule:nonzero;fill:rgb(73.329163%,90.979004%,87.838745%);fill-opacity:1;" d="M 592.246094 1262.386719 L 900.257812 1262.386719 L 900.257812 229.167969 L 592.246094 229.167969 Z M 592.246094 1262.386719 "/>
<path style=" stroke:none;fill-rule:nonzero;fill:rgb(64.309692%,88.238525%,87.838745%);fill-opacity:1;" d="M 592.246094 1262.386719 L 900.257812 1262.386719 L 900.257812 469.625 L 592.246094 469.625 Z M 592.246094 1262.386719 "/>
<path style=" stroke:none;fill-rule:nonzero;fill:rgb(57.249451%,85.879517%,87.838745%);fill-opacity:1;" d="M 592.246094 1262.386719 L 900.257812 1262.386719 L 900.257812 703.003906 L 592.246094 703.003906 Z M 592.246094 1262.386719 "/>
<path style=" stroke:none;fill-rule:nonzero;fill:rgb(56.469727%,84.709167%,86.268616%);fill-opacity:1;" d="M 592.246094 1262.386719 L 900.257812 1262.386719 L 900.257812 837.378906 L 592.246094 837.378906 Z M 592.246094 1262.386719 "/>
<path style=" stroke:none;fill-rule:nonzero;fill:rgb(46.669006%,80.389404%,50.588989%);fill-opacity:1;" d="M 807.296875 1136.179688 L 828.140625 1092.863281 L 776.820312 1023.902344 L 805.136719 1015.066406 L 721.949219 871.851562 L 771.503906 855.945312 L 674.183594 541.238281 L 592.246094 730.878906 L 592.246094 1262.386719 L 900.257812 1262.386719 L 807.296875 1136.179688 "/>
<path style=" stroke:none;fill-rule:nonzero;fill:rgb(39.219666%,70.979309%,45.489502%);fill-opacity:1;" d="M 674.183594 1257.292969 L 674.183594 541.238281 L 592.246094 730.878906 L 592.246094 1262.386719 L 900.257812 1262.386719 L 900.257812 1257.292969 L 674.183594 1257.292969 "/>
<path style=" stroke:none;fill-rule:nonzero;fill:rgb(43.528748%,77.249146%,48.629761%);fill-opacity:1;" d="M 765.570312 1257.292969 L 674.183594 1257.292969 L 674.183594 1172.429688 L 831.820312 1172.429688 L 765.570312 1257.292969 "/>
<path style=" stroke:none;fill-rule:nonzero;fill:rgb(39.219666%,70.979309%,45.489502%);fill-opacity:1;" d="M 761.597656 1262.386719 L 605.523438 1262.386719 L 605.523438 1172.429688 L 674.183594 1172.429688 L 674.183594 1257.292969 L 765.570312 1257.292969 L 761.597656 1262.386719 "/>
<path style=" stroke:none;fill-rule:nonzero;fill:rgb(50.19989%,76.858521%,78.819275%);fill-opacity:1;" d="M 592.246094 730.878906 L 592.246094 729.894531 L 593.027344 729.066406 L 592.246094 730.878906 "/>
<path style=" stroke:none;fill-rule:nonzero;fill:rgb(35.289001%,63.529968%,41.569519%);fill-opacity:1;" d="M 592.785156 1262.386719 L 592.246094 1262.386719 L 592.246094 730.878906 L 593.027344 729.066406 L 605.523438 715.839844 L 605.523438 1172.429688 L 592.785156 1172.429688 L 592.785156 1262.386719 "/>
<path style=" stroke:none;fill-rule:nonzero;fill:rgb(64.309692%,81.568909%,78.42865%);fill-opacity:1;" d="M 592.246094 429.246094 L 592.246094 383.351562 L 605.523438 372.09375 L 605.523438 419.863281 L 592.246094 429.246094 M 592.246094 283.917969 L 592.246094 229.167969 L 663.699219 229.167969 L 646.386719 242.433594 L 605.523438 242.433594 L 605.523438 273.75 L 592.246094 283.917969 M 856.574219 242.433594 L 758.355469 242.433594 L 773.996094 229.167969 L 875.339844 229.167969 L 856.574219 242.433594 "/>
<path style=" stroke:none;fill-rule:nonzero;fill:rgb(35.289001%,63.529968%,41.569519%);fill-opacity:1;" d="M 592.785156 1262.386719 L 605.523438 1262.386719 L 605.523438 1172.429688 L 592.785156 1172.429688 Z M 592.785156 1262.386719 "/>
<path style=" stroke:none;fill-rule:nonzero;fill:rgb(96.078491%,96.078491%,96.078491%);fill-opacity:1;" d="M 567.070312 756.546875 L 567.070312 447.039062 L 592.246094 429.246094 L 592.246094 729.894531 L 567.070312 756.546875 "/>
<g clip-path="url(#clip3)" clip-rule="nonzero">
<path style=" stroke:none;fill-rule:nonzero;fill:rgb(96.078491%,96.078491%,96.078491%);fill-opacity:1;" d="M 900.257812 403.773438 L 900.257812 229.167969 L 875.339844 229.167969 L 916.625 199.992188 L 925.441406 196.746094 L 925.441406 377.109375 L 900.257812 403.773438 "/>
</g>
<path style=" stroke:none;fill-rule:nonzero;fill:rgb(79.998779%,92.549133%,90.19928%);fill-opacity:1;" d="M 838.066406 469.625 L 605.523438 469.625 L 605.523438 419.863281 L 856.574219 242.433594 L 900.257812 242.433594 L 900.257812 403.773438 L 838.066406 469.625 "/>
<path style=" stroke:none;fill-rule:nonzero;fill:rgb(73.329163%,90.589905%,90.19928%);fill-opacity:1;" d="M 605.523438 700.152344 L 605.523438 469.625 L 838.066406 469.625 L 697.921875 618.003906 L 674.183594 541.238281 L 605.523438 700.152344 "/>
<path style=" stroke:none;fill-rule:nonzero;fill:rgb(61.178589%,85.488892%,63.139343%);fill-opacity:1;" d="M 605.523438 700.152344 L 674.183594 541.238281 L 697.921875 618.003906 L 674.183594 643.136719 L 674.183594 541.238281 L 605.523438 700.152344 "/>
<path style=" stroke:none;fill-rule:nonzero;fill:rgb(56.469727%,79.60968%,59.609985%);fill-opacity:1;" d="M 605.523438 715.839844 L 605.523438 700.152344 L 674.183594 541.238281 L 674.183594 643.136719 L 605.523438 715.839844 "/>
<path style=" stroke:none;fill-rule:nonzero;fill:rgb(74.508667%,86.669922%,84.309387%);fill-opacity:1;" d="M 605.523438 469.625 L 592.246094 469.625 L 592.246094 429.246094 L 605.523438 419.863281 L 605.523438 469.625 "/>
<path style=" stroke:none;fill-rule:nonzero;fill:rgb(68.238831%,84.309387%,83.529663%);fill-opacity:1;" d="M 604.292969 703.003906 L 592.246094 703.003906 L 592.246094 469.625 L 605.523438 469.625 L 605.523438 700.152344 L 604.292969 703.003906 "/>
<path style=" stroke:none;fill-rule:nonzero;fill:rgb(63.919067%,82.749939%,83.918762%);fill-opacity:1;" d="M 592.246094 729.894531 L 592.246094 703.003906 L 604.292969 703.003906 L 593.027344 729.066406 L 592.246094 729.894531 "/>
<path style=" stroke:none;fill-rule:nonzero;fill:rgb(53.329468%,73.728943%,56.469727%);fill-opacity:1;" d="M 593.027344 729.066406 L 605.523438 700.152344 L 605.523438 715.839844 L 593.027344 729.066406 "/>
<path style=" stroke:none;fill-rule:nonzero;fill:rgb(74.508667%,86.669922%,84.309387%);fill-opacity:1;" d="M 900.257812 242.433594 L 856.574219 242.433594 L 875.339844 229.167969 L 900.257812 229.167969 L 900.257812 242.433594 "/>
<path style=" stroke:none;fill-rule:nonzero;fill:rgb(96.078491%,96.078491%,96.078491%);fill-opacity:1;" d="M 567.070312 404.710938 L 567.070312 303.207031 L 592.246094 283.917969 L 592.246094 383.351562 L 567.070312 404.710938 "/>
<path style=" stroke:none;fill-rule:nonzero;fill:rgb(79.998779%,92.549133%,90.19928%);fill-opacity:1;" d="M 605.523438 372.09375 L 605.523438 273.75 L 646.386719 242.433594 L 758.355469 242.433594 L 605.523438 372.09375 "/>
<g clip-path="url(#clip4)" clip-rule="nonzero">
<path style=" stroke:none;fill-rule:nonzero;fill:rgb(96.078491%,96.078491%,96.078491%);fill-opacity:1;" d="M 773.996094 229.167969 L 663.699219 229.167969 L 706.015625 196.746094 L 812.21875 196.746094 L 773.996094 229.167969 "/>
</g>
<path style=" stroke:none;fill-rule:nonzero;fill:rgb(74.508667%,86.669922%,84.309387%);fill-opacity:1;" d="M 592.246094 383.351562 L 592.246094 283.917969 L 605.523438 273.75 L 605.523438 372.09375 L 592.246094 383.351562 M 758.355469 242.433594 L 646.386719 242.433594 L 663.699219 229.167969 L 773.996094 229.167969 L 758.355469 242.433594 "/>
<path style=" stroke:none;fill-rule:nonzero;fill:rgb(96.078491%,96.078491%,96.078491%);fill-opacity:1;" d="M 925.441406 1294.808594 L 736.285156 1294.808594 L 761.597656 1262.386719 L 900.257812 1262.386719 L 900.257812 1084.757812 L 925.441406 1052.496094 L 925.441406 1294.808594 "/>
<path style=" stroke:none;fill-rule:nonzero;fill:rgb(68.238831%,88.62915%,89.019775%);fill-opacity:1;" d="M 900.257812 1172.429688 L 833.996094 1172.429688 L 832.941406 1170.996094 L 900.257812 1084.757812 L 900.257812 1172.429688 "/>
<path style=" stroke:none;fill-rule:nonzero;fill:rgb(61.178589%,85.488892%,63.139343%);fill-opacity:1;" d="M 833.996094 1172.429688 L 831.820312 1172.429688 L 832.941406 1170.996094 L 833.996094 1172.429688 "/>
<path style=" stroke:none;fill-rule:nonzero;fill:rgb(63.139343%,85.099792%,77.249146%);fill-opacity:1;" d="M 900.257812 1257.292969 L 896.507812 1257.292969 L 833.996094 1172.429688 L 900.257812 1172.429688 L 900.257812 1257.292969 "/>
<path style=" stroke:none;fill-rule:nonzero;fill:rgb(58.81958%,83.529663%,61.959839%);fill-opacity:1;" d="M 896.507812 1257.292969 L 765.570312 1257.292969 L 831.820312 1172.429688 L 833.996094 1172.429688 L 896.507812 1257.292969 "/>
<path style=" stroke:none;fill-rule:nonzero;fill:rgb(56.469727%,79.60968%,59.609985%);fill-opacity:1;" d="M 900.257812 1262.386719 L 761.597656 1262.386719 L 765.570312 1257.292969 L 900.257812 1257.292969 L 900.257812 1262.386719 "/>
<g clip-path="url(#clip5)" clip-rule="nonzero">
<path style=" stroke:none;fill-rule:nonzero;fill:rgb(80.389404%,79.998779%,79.219055%);fill-opacity:1;" d="M 1371.402344 1302.777344 L 1013.035156 1302.777344 L 1013.035156 1294.808594 L 1363.445312 1294.808594 L 1363.445312 204.703125 L 1371.402344 204.703125 L 1371.402344 1302.777344 "/>
</g>
<g clip-path="url(#clip6)" clip-rule="nonzero">
<path style=" stroke:none;fill-rule:nonzero;fill:rgb(96.078491%,96.078491%,96.078491%);fill-opacity:1;" d="M 1005.078125 1294.808594 L 1363.445312 1294.808594 L 1363.445312 196.746094 L 1005.078125 196.746094 Z M 1005.078125 1294.808594 "/>
</g>
<path style=" stroke:none;fill-rule:nonzero;fill:rgb(73.329163%,90.979004%,87.838745%);fill-opacity:1;" d="M 1030.257812 1262.386719 L 1338.257812 1262.386719 L 1338.257812 229.167969 L 1030.257812 229.167969 Z M 1030.257812 1262.386719 "/>
<path style=" stroke:none;fill-rule:nonzero;fill:rgb(64.309692%,88.238525%,87.838745%);fill-opacity:1;" d="M 1030.257812 1262.386719 L 1338.257812 1262.386719 L 1338.257812 469.625 L 1030.257812 469.625 Z M 1030.257812 1262.386719 "/>
<path style=" stroke:none;fill-rule:nonzero;fill:rgb(54.119873%,81.568909%,70.199585%);fill-opacity:1;" d="M 1199.601562 1262.386719 L 1043.535156 1262.386719 L 1043.535156 1172.429688 L 1269.820312 1172.429688 L 1199.601562 1262.386719 "/>
<path style=" stroke:none;fill-rule:nonzero;fill:rgb(64.309692%,81.568909%,78.42865%);fill-opacity:1;" d="M 1030.257812 429.238281 L 1030.257812 383.339844 L 1043.535156 372.082031 L 1043.535156 419.859375 L 1030.257812 429.238281 M 1030.257812 283.910156 L 1030.257812 229.167969 L 1101.710938 229.167969 L 1084.398438 242.433594 L 1043.535156 242.433594 L 1043.535156 273.738281 L 1030.257812 283.910156 M 1294.570312 242.433594 L 1196.363281 242.433594 L 1212 229.167969 L 1313.34375 229.167969 L 1294.570312 242.433594 "/>
<path style=" stroke:none;fill-rule:nonzero;fill:rgb(56.469727%,79.219055%,78.819275%);fill-opacity:1;" d="M 1030.789062 1262.386719 L 1030.257812 1262.386719 L 1030.257812 729.886719 L 1043.535156 715.824219 L 1043.535156 1172.429688 L 1030.789062 1172.429688 L 1030.789062 1262.386719 "/>
<path style=" stroke:none;fill-rule:nonzero;fill:rgb(47.839355%,72.938538%,63.529968%);fill-opacity:1;" d="M 1030.789062 1262.386719 L 1043.535156 1262.386719 L 1043.535156 1172.429688 L 1030.789062 1172.429688 Z M 1030.789062 1262.386719 "/>
<path style=" stroke:none;fill-rule:nonzero;fill:rgb(63.139343%,45.489502%,27.059937%);fill-opacity:1;" d="M 1202.804688 1175.964844 L 1185.117188 1175.964844 L 1185.117188 977.941406 L 1202.804688 977.941406 L 1202.804688 1175.964844 "/>
<path style=" stroke:none;fill-rule:nonzero;fill:rgb(39.219666%,70.979309%,45.489502%);fill-opacity:1;" d="M 1282.527344 874.398438 C 1285.878906 865.949219 1287.734375 856.738281 1287.734375 847.101562 C 1287.734375 806.09375 1254.453125 772.839844 1213.410156 772.839844 C 1192.355469 772.839844 1173.367188 781.613281 1159.84375 795.667969 C 1155.746094 794.65625 1151.464844 794.058594 1147.054688 794.058594 C 1117.746094 794.058594 1093.972656 817.8125 1093.972656 847.101562 C 1093.972656 861.132812 1099.464844 873.859375 1108.371094 883.34375 C 1087.070312 895.753906 1072.734375 918.808594 1072.734375 945.230469 C 1072.734375 984.773438 1104.824219 1016.832031 1144.410156 1016.832031 C 1162.359375 1016.832031 1178.765625 1010.222656 1191.339844 999.324219 C 1205.496094 1013.429688 1225.035156 1022.140625 1246.605469 1022.140625 C 1289.847656 1022.140625 1324.890625 987.109375 1324.890625 943.90625 C 1324.890625 913.640625 1307.695312 887.40625 1282.527344 874.398438 "/>
<g clip-path="url(#clip7)" clip-rule="nonzero">
<path style=" stroke:none;fill-rule:nonzero;fill:rgb(96.078491%,96.078491%,96.078491%);fill-opacity:1;" d="M 1005.078125 756.546875 L 1005.078125 447.039062 L 1030.257812 429.238281 L 1030.257812 729.886719 L 1005.078125 756.546875 M 1338.257812 403.773438 L 1338.257812 229.167969 L 1313.34375 229.167969 L 1354.621094 199.992188 L 1363.445312 196.746094 L 1363.445312 377.109375 L 1338.257812 403.773438 "/>
</g>
<path style=" stroke:none;fill-rule:nonzero;fill:rgb(79.998779%,92.549133%,90.19928%);fill-opacity:1;" d="M 1276.066406 469.625 L 1043.535156 469.625 L 1043.535156 419.859375 L 1294.570312 242.433594 L 1338.257812 242.433594 L 1338.257812 403.773438 L 1276.066406 469.625 "/>
<path style=" stroke:none;fill-rule:nonzero;fill:rgb(73.329163%,90.589905%,90.19928%);fill-opacity:1;" d="M 1043.535156 715.824219 L 1043.535156 469.625 L 1276.066406 469.625 L 1043.535156 715.824219 "/>
<path style=" stroke:none;fill-rule:nonzero;fill:rgb(74.508667%,86.669922%,84.309387%);fill-opacity:1;" d="M 1043.535156 469.625 L 1030.257812 469.625 L 1030.257812 429.238281 L 1043.535156 419.859375 L 1043.535156 469.625 M 1338.257812 242.433594 L 1294.570312 242.433594 L 1313.34375 229.167969 L 1338.257812 229.167969 L 1338.257812 242.433594 "/>
<path style=" stroke:none;fill-rule:nonzero;fill:rgb(68.238831%,84.309387%,83.529663%);fill-opacity:1;" d="M 1030.257812 729.886719 L 1030.257812 469.625 L 1043.535156 469.625 L 1043.535156 715.824219 L 1030.257812 729.886719 "/>
<g clip-path="url(#clip8)" clip-rule="nonzero">
<path style=" stroke:none;fill-rule:nonzero;fill:rgb(96.078491%,96.078491%,96.078491%);fill-opacity:1;" d="M 1005.078125 404.710938 L 1005.078125 303.207031 L 1030.257812 283.910156 L 1030.257812 383.339844 L 1005.078125 404.710938 M 1212 229.167969 L 1101.710938 229.167969 L 1144.035156 196.746094 L 1250.21875 196.746094 L 1212 229.167969 "/>
</g>
<path style=" stroke:none;fill-rule:nonzero;fill:rgb(79.998779%,92.549133%,90.19928%);fill-opacity:1;" d="M 1043.535156 372.082031 L 1043.535156 273.738281 L 1084.398438 242.433594 L 1196.363281 242.433594 L 1043.535156 372.082031 "/>
<path style=" stroke:none;fill-rule:nonzero;fill:rgb(74.508667%,86.669922%,84.309387%);fill-opacity:1;" d="M 1030.257812 383.339844 L 1030.257812 283.910156 L 1043.535156 273.738281 L 1043.535156 372.082031 L 1030.257812 383.339844 M 1196.363281 242.433594 L 1084.398438 242.433594 L 1101.710938 229.167969 L 1212 229.167969 L 1196.363281 242.433594 "/>
<path style=" stroke:none;fill-rule:nonzero;fill:rgb(96.078491%,96.078491%,96.078491%);fill-opacity:1;" d="M 1363.445312 1294.808594 L 1174.292969 1294.808594 L 1199.601562 1262.386719 L 1338.257812 1262.386719 L 1338.257812 1084.757812 L 1363.445312 1052.496094 L 1363.445312 1294.808594 "/>
<path style=" stroke:none;fill-rule:nonzero;fill:rgb(73.329163%,90.589905%,90.19928%);fill-opacity:1;" d="M 1338.257812 1172.429688 L 1269.820312 1172.429688 L 1338.257812 1084.757812 L 1338.257812 1172.429688 "/>
<path style=" stroke:none;fill-rule:nonzero;fill:rgb(66.268921%,86.268616%,77.648926%);fill-opacity:1;" d="M 1338.257812 1262.386719 L 1199.601562 1262.386719 L 1269.820312 1172.429688 L 1338.257812 1172.429688 L 1338.257812 1262.386719 "/>
<g clip-path="url(#clip9)" clip-rule="nonzero">
<path style=" stroke:none;fill-rule:nonzero;fill:rgb(80.389404%,79.998779%,79.219055%);fill-opacity:1;" d="M 495.402344 1302.777344 L 137.035156 1302.777344 L 137.035156 1294.808594 L 487.4375 1294.808594 L 487.4375 204.703125 L 495.402344 204.703125 L 495.402344 1302.777344 "/>
</g>
<g clip-path="url(#clip10)" clip-rule="nonzero">
<path style=" stroke:none;fill-rule:nonzero;fill:rgb(96.078491%,96.078491%,96.078491%);fill-opacity:1;" d="M 129.0625 1294.808594 L 487.4375 1294.808594 L 487.4375 196.746094 L 129.0625 196.746094 Z M 129.0625 1294.808594 "/>
</g>
<path style=" stroke:none;fill-rule:nonzero;fill:rgb(73.329163%,90.979004%,87.838745%);fill-opacity:1;" d="M 154.234375 1262.386719 L 462.253906 1262.386719 L 462.253906 229.167969 L 154.234375 229.167969 Z M 154.234375 1262.386719 "/>
<path style=" stroke:none;fill-rule:nonzero;fill:rgb(64.309692%,88.238525%,87.838745%);fill-opacity:1;" d="M 154.234375 1262.386719 L 462.253906 1262.386719 L 462.253906 469.625 L 154.234375 469.625 Z M 154.234375 1262.386719 "/>
<path style=" stroke:none;fill-rule:nonzero;fill:rgb(57.249451%,85.879517%,87.838745%);fill-opacity:1;" d="M 154.234375 1262.386719 L 462.253906 1262.386719 L 462.253906 703.003906 L 154.234375 703.003906 Z M 154.234375 1262.386719 "/>
<path style=" stroke:none;fill-rule:nonzero;fill:rgb(56.469727%,84.709167%,86.268616%);fill-opacity:1;" d="M 154.234375 1262.386719 L 462.253906 1262.386719 L 462.253906 837.378906 L 154.234375 837.378906 Z M 154.234375 1262.386719 "/>
<path style=" stroke:none;fill-rule:nonzero;fill:rgb(46.669006%,80.389404%,50.588989%);fill-opacity:1;" d="M 462.253906 596.308594 L 395.433594 898.371094 L 448.527344 907.21875 L 404.285156 1007.996094 L 434.367188 1009.769531 L 390.128906 1092.863281 L 338.824219 1023.902344 L 367.117188 1015.066406 L 283.953125 871.851562 L 333.503906 855.945312 L 236.175781 541.238281 L 154.234375 730.878906 L 154.234375 1262.386719 L 462.253906 1262.386719 L 462.253906 596.308594 "/>
<path style=" stroke:none;fill-rule:nonzero;fill:rgb(39.219666%,70.979309%,45.489502%);fill-opacity:1;" d="M 236.183594 1257.292969 L 236.183594 541.238281 L 236.175781 541.238281 L 154.234375 730.878906 L 154.234375 1262.386719 L 462.253906 1262.386719 L 462.253906 1257.292969 L 236.183594 1257.292969 "/>
<path style=" stroke:none;fill-rule:nonzero;fill:rgb(43.528748%,77.249146%,48.629761%);fill-opacity:1;" d="M 327.570312 1257.292969 L 236.183594 1257.292969 L 236.183594 1172.429688 L 393.816406 1172.429688 L 327.570312 1257.292969 "/>
<path style=" stroke:none;fill-rule:nonzero;fill:rgb(39.219666%,70.979309%,45.489502%);fill-opacity:1;" d="M 323.601562 1262.386719 L 167.511719 1262.386719 L 167.511719 1172.429688 L 236.183594 1172.429688 L 236.183594 1257.292969 L 327.570312 1257.292969 L 323.601562 1262.386719 "/>
<path style=" stroke:none;fill-rule:nonzero;fill:rgb(35.289001%,63.529968%,41.569519%);fill-opacity:1;" d="M 154.789062 1262.386719 L 154.234375 1262.386719 L 154.234375 1119.945312 L 167.511719 1111.65625 L 167.511719 1172.429688 L 154.789062 1172.429688 L 154.789062 1262.386719 "/>
<path style=" stroke:none;fill-rule:nonzero;fill:rgb(35.289001%,63.529968%,41.569519%);fill-opacity:1;" d="M 154.789062 1262.386719 L 167.511719 1262.386719 L 167.511719 1172.429688 L 154.789062 1172.429688 Z M 154.789062 1262.386719 "/>
<path style=" stroke:none;fill-rule:nonzero;fill:rgb(35.289001%,63.529968%,41.569519%);fill-opacity:1;" d="M 154.234375 989.609375 L 154.234375 871.839844 L 167.511719 860.074219 L 167.511719 977.511719 L 154.234375 989.609375 "/>
<path style=" stroke:none;fill-rule:nonzero;fill:rgb(64.309692%,81.568909%,78.42865%);fill-opacity:1;" d="M 167.511719 469.625 L 154.234375 469.625 L 154.234375 383.355469 L 167.511719 372.09375 L 167.511719 469.625 "/>
<path style=" stroke:none;fill-rule:nonzero;fill:rgb(56.469727%,79.219055%,78.819275%);fill-opacity:1;" d="M 154.234375 556.941406 L 154.234375 469.625 L 167.511719 469.625 L 167.511719 542.332031 L 154.234375 556.941406 "/>
<path style=" stroke:none;fill-rule:nonzero;fill:rgb(64.309692%,81.568909%,78.42865%);fill-opacity:1;" d="M 154.234375 283.917969 L 154.234375 229.167969 L 225.691406 229.167969 L 208.378906 242.433594 L 167.511719 242.433594 L 167.511719 273.75 L 154.234375 283.917969 M 440.039062 242.433594 L 320.347656 242.433594 L 335.984375 229.167969 L 452.09375 229.167969 L 440.039062 242.433594 "/>
<path style=" stroke:none;fill-rule:nonzero;fill:rgb(96.078491%,96.078491%,96.078491%);fill-opacity:1;" d="M 129.0625 894.152344 L 129.0625 584.644531 L 154.234375 556.941406 L 154.234375 871.839844 L 129.0625 894.152344 "/>
<g clip-path="url(#clip11)" clip-rule="nonzero">
<path style=" stroke:none;fill-rule:nonzero;fill:rgb(96.078491%,96.078491%,96.078491%);fill-opacity:1;" d="M 462.253906 598.835938 L 462.253906 229.167969 L 452.09375 229.167969 L 478.605469 199.992188 L 487.4375 196.746094 L 487.4375 576.511719 L 462.253906 598.835938 "/>
</g>
<path style=" stroke:none;fill-rule:nonzero;fill:rgb(79.998779%,92.549133%,90.19928%);fill-opacity:1;" d="M 462.253906 469.625 L 233.589844 469.625 L 440.039062 242.433594 L 462.253906 242.433594 L 462.253906 469.625 "/>
<path style=" stroke:none;fill-rule:nonzero;fill:rgb(73.329163%,90.589905%,90.19928%);fill-opacity:1;" d="M 344.726562 703.003906 L 286.203125 703.003906 L 236.183594 541.273438 L 236.183594 541.238281 L 236.175781 541.238281 L 167.511719 700.152344 L 167.511719 542.332031 L 233.589844 469.625 L 462.253906 469.625 L 462.253906 596.308594 L 461.558594 599.453125 L 344.726562 703.003906 "/>
<path style=" stroke:none;fill-rule:nonzero;fill:rgb(68.629456%,89.408875%,90.19928%);fill-opacity:1;" d="M 298.796875 743.714844 L 286.203125 703.003906 L 344.726562 703.003906 L 298.796875 743.714844 "/>
<path style=" stroke:none;fill-rule:nonzero;fill:rgb(61.178589%,85.488892%,63.139343%);fill-opacity:1;" d="M 236.183594 799.203125 L 236.183594 541.273438 L 286.203125 703.003906 L 298.796875 743.714844 L 236.183594 799.203125 M 461.558594 599.453125 L 462.253906 596.308594 L 462.253906 598.835938 L 461.558594 599.453125 "/>
<path style=" stroke:none;fill-rule:nonzero;fill:rgb(56.469727%,79.60968%,59.609985%);fill-opacity:1;" d="M 167.511719 860.074219 L 167.511719 700.152344 L 236.175781 541.238281 L 236.183594 541.238281 L 236.183594 799.203125 L 167.511719 860.074219 "/>
<path style=" stroke:none;fill-rule:nonzero;fill:rgb(68.238831%,84.309387%,83.529663%);fill-opacity:1;" d="M 166.277344 703.003906 L 154.234375 703.003906 L 154.234375 556.941406 L 167.511719 542.332031 L 167.511719 700.152344 L 166.277344 703.003906 "/>
<path style=" stroke:none;fill-rule:nonzero;fill:rgb(63.919067%,82.749939%,83.918762%);fill-opacity:1;" d="M 154.234375 730.878906 L 154.234375 703.003906 L 166.277344 703.003906 L 154.234375 730.878906 "/>
<path style=" stroke:none;fill-rule:nonzero;fill:rgb(53.329468%,73.728943%,56.469727%);fill-opacity:1;" d="M 154.234375 871.839844 L 154.234375 730.878906 L 167.511719 700.152344 L 167.511719 860.074219 L 154.234375 871.839844 "/>
<path style=" stroke:none;fill-rule:nonzero;fill:rgb(74.508667%,86.669922%,84.309387%);fill-opacity:1;" d="M 462.253906 242.433594 L 440.039062 242.433594 L 452.09375 229.167969 L 462.253906 229.167969 L 462.253906 242.433594 "/>
<path style=" stroke:none;fill-rule:nonzero;fill:rgb(96.078491%,96.078491%,96.078491%);fill-opacity:1;" d="M 129.0625 404.710938 L 129.0625 303.207031 L 154.234375 283.917969 L 154.234375 383.355469 L 129.0625 404.710938 "/>
<path style=" stroke:none;fill-rule:nonzero;fill:rgb(79.998779%,92.549133%,90.19928%);fill-opacity:1;" d="M 167.511719 372.09375 L 167.511719 273.75 L 208.378906 242.433594 L 320.347656 242.433594 L 167.511719 372.09375 "/>
<g clip-path="url(#clip12)" clip-rule="nonzero">
<path style=" stroke:none;fill-rule:nonzero;fill:rgb(96.078491%,96.078491%,96.078491%);fill-opacity:1;" d="M 335.984375 229.167969 L 225.691406 229.167969 L 268.011719 196.746094 L 374.207031 196.746094 L 335.984375 229.167969 "/>
</g>
<path style=" stroke:none;fill-rule:nonzero;fill:rgb(74.508667%,86.669922%,84.309387%);fill-opacity:1;" d="M 154.234375 383.355469 L 154.234375 283.917969 L 167.511719 273.75 L 167.511719 372.09375 L 154.234375 383.355469 M 320.347656 242.433594 L 208.378906 242.433594 L 225.691406 229.167969 L 335.984375 229.167969 L 320.347656 242.433594 "/>
<path style=" stroke:none;fill-rule:nonzero;fill:rgb(96.078491%,96.078491%,96.078491%);fill-opacity:1;" d="M 129.0625 1135.660156 L 129.0625 1012.554688 L 154.234375 989.609375 L 154.234375 1119.945312 L 129.0625 1135.660156 "/>
<path style=" stroke:none;fill-rule:nonzero;fill:rgb(68.629456%,89.408875%,90.19928%);fill-opacity:1;" d="M 408.921875 837.378906 L 327.765625 837.378906 L 326.332031 832.757812 L 431.0625 737.308594 L 408.921875 837.378906 "/>
<path style=" stroke:none;fill-rule:nonzero;fill:rgb(68.238831%,88.62915%,89.019775%);fill-opacity:1;" d="M 355.160156 994.480469 L 283.953125 871.851562 L 333.503906 855.945312 L 327.765625 837.378906 L 408.921875 837.378906 L 395.433594 898.371094 L 448.527344 907.21875 L 431.015625 947.117188 L 355.160156 994.480469 "/>
<path style=" stroke:none;fill-rule:nonzero;fill:rgb(96.078491%,96.078491%,96.078491%);fill-opacity:1;" d="M 462.253906 927.605469 L 462.253906 708.878906 L 487.4375 685.925781 L 487.4375 911.878906 L 462.253906 927.605469 "/>
<path style=" stroke:none;fill-rule:nonzero;fill:rgb(61.178589%,85.488892%,63.139343%);fill-opacity:1;" d="M 236.183594 1068.773438 L 236.183594 914.921875 L 326.332031 832.757812 L 327.765625 837.378906 L 333.503906 855.945312 L 283.953125 871.851562 L 355.160156 994.480469 L 236.183594 1068.773438 M 431.015625 947.117188 L 448.527344 907.21875 L 395.433594 898.371094 L 408.921875 837.378906 L 431.0625 737.308594 L 462.253906 708.878906 L 462.253906 927.605469 L 431.015625 947.117188 "/>
<path style=" stroke:none;fill-rule:nonzero;fill:rgb(56.469727%,79.60968%,59.609985%);fill-opacity:1;" d="M 167.511719 1111.65625 L 167.511719 977.511719 L 236.183594 914.921875 L 236.183594 1068.773438 L 167.511719 1111.65625 "/>
<path style=" stroke:none;fill-rule:nonzero;fill:rgb(53.329468%,73.728943%,56.469727%);fill-opacity:1;" d="M 154.234375 1119.945312 L 154.234375 989.609375 L 167.511719 977.511719 L 167.511719 1111.65625 L 154.234375 1119.945312 "/>
<path style=" stroke:none;fill-rule:nonzero;fill:rgb(96.078491%,96.078491%,96.078491%);fill-opacity:1;" d="M 487.4375 1294.808594 L 298.289062 1294.808594 L 323.601562 1262.386719 L 462.253906 1262.386719 L 462.253906 1084.757812 L 487.4375 1052.496094 L 487.4375 1294.808594 "/>
<path style=" stroke:none;fill-rule:nonzero;fill:rgb(61.178589%,85.488892%,63.139343%);fill-opacity:1;" d="M 462.253906 1172.429688 L 393.816406 1172.429688 L 462.253906 1084.757812 L 462.253906 1172.429688 "/>
<path style=" stroke:none;fill-rule:nonzero;fill:rgb(58.81958%,83.529663%,61.959839%);fill-opacity:1;" d="M 462.253906 1257.292969 L 327.570312 1257.292969 L 393.816406 1172.429688 L 462.253906 1172.429688 L 462.253906 1257.292969 "/>
<path style=" stroke:none;fill-rule:nonzero;fill:rgb(56.469727%,79.60968%,59.609985%);fill-opacity:1;" d="M 462.253906 1262.386719 L 323.601562 1262.386719 L 327.570312 1257.292969 L 462.253906 1257.292969 L 462.253906 1262.386719 "/>
</g>
</svg>
