<?xml version="1.0" encoding="UTF-8" standalone="no"?>
<svg
   xmlns:dc="http://purl.org/dc/elements/1.1/"
   xmlns:cc="http://creativecommons.org/ns#"
   xmlns:rdf="http://www.w3.org/1999/02/22-rdf-syntax-ns#"
   xmlns:svg="http://www.w3.org/2000/svg"
   xmlns="http://www.w3.org/2000/svg"
   xmlns:sodipodi="http://sodipodi.sourceforge.net/DTD/sodipodi-0.dtd"
   xmlns:inkscape="http://www.inkscape.org/namespaces/inkscape"
   width="1500pt"
   height="1499.999933pt"
   viewBox="0 0 1500 1499.999933"
   version="1.2"
   id="svg73"
   sodipodi:docname="zasha-apparel.svg"
   inkscape:version="1.0.1 (3bc2e813f5, 2020-09-07)">
  <metadata
     id="metadata77">
    <rdf:RDF>
      <cc:Work
         rdf:about="">
        <dc:format>image/svg+xml</dc:format>
        <dc:type
           rdf:resource="http://purl.org/dc/dcmitype/StillImage" />
      </cc:Work>
    </rdf:RDF>
  </metadata>
  <sodipodi:namedview
     pagecolor="#ffffff"
     bordercolor="#666666"
     borderopacity="1"
     objecttolerance="10"
     gridtolerance="10"
     guidetolerance="10"
     inkscape:pageopacity="0"
     inkscape:pageshadow="2"
     inkscape:window-width="1824"
     inkscape:window-height="951"
     id="namedview75"
     showgrid="false"
     inkscape:zoom="0.42600003"
     inkscape:cx="1000"
     inkscape:cy="999.99992"
     inkscape:window-x="0"
     inkscape:window-y="31"
     inkscape:window-maximized="0"
     inkscape:current-layer="surface1" />
  <defs
     id="defs14">
    <clipPath
       id="clip1">
      <path
         d="M 469 611 L 1003 611 L 1003 1235.910156 L 469 1235.910156 Z M 469 611 "
         id="path2" />
    </clipPath>
    <clipPath
       id="clip2">
      <path
         d="M 150 263.96875 L 386 263.96875 L 386 522 L 150 522 Z M 150 263.96875 "
         id="path5" />
    </clipPath>
    <clipPath
       id="clip3">
      <path
         d="M 1042 487 L 1425.859375 487 L 1425.859375 938 L 1042 938 Z M 1042 487 "
         id="path8" />
    </clipPath>
    <clipPath
       id="clip4">
      <path
         d="M 1116 263.96875 L 1352 263.96875 L 1352 522 L 1116 522 Z M 1116 263.96875 "
         id="path11" />
    </clipPath>
  </defs>
  <g
     id="surface1">
    <g
       clip-path="url(#clip1)"
       clip-rule="nonzero"
       id="g18">
      <path
         style="stroke:none;fill-rule:nonzero;fill:#2f54eb;fill-opacity:1"
         d="M 1001.046875 1078.40625 C 999.050781 1074.738281 997.339844 1075.109375 995.054688 1075.457031 C 992.953125 1075.789062 990.359375 1076.140625 986.609375 1073.273438 C 978.824219 1067.320312 972.191406 1056.113281 968.875 1047.523438 C 965.558594 1038.914062 946.238281 1024.265625 946.238281 1024.265625 C 905.433594 953.195312 922.550781 897.019531 890.214844 772.367188 C 868.050781 686.855469 836.949219 647.773438 819.625 631.6875 C 812.828125 617.246094 807.761719 611.332031 807.761719 611.332031 C 807.761719 611.332031 744.074219 611.332031 735.957031 611.332031 L 735.9375 611.332031 C 727.824219 611.332031 664.113281 611.332031 664.113281 611.332031 C 664.113281 611.332031 659.171875 617.140625 652.476562 631.253906 C 635.238281 647.074219 603.804688 686.070312 581.414062 772.367188 C 549.078125 897.019531 566.195312 953.195312 525.390625 1024.265625 C 525.390625 1024.265625 506.070312 1038.894531 502.753906 1047.503906 C 499.457031 1056.113281 492.804688 1067.300781 485.019531 1073.253906 C 481.269531 1076.117188 478.675781 1075.789062 476.574219 1075.457031 C 474.289062 1075.089844 472.578125 1074.738281 470.558594 1078.382812 C 466.707031 1085.410156 473.402344 1088.355469 481.703125 1081.867188 C 490.003906 1075.375 503.414062 1059.308594 506.585938 1054.28125 C 509.738281 1049.277344 498.738281 1074.039062 489.449219 1084.769531 C 480.179688 1095.484375 479.765625 1090.332031 476.492188 1096.078125 C 473.238281 1101.847656 484.382812 1105.308594 489.695312 1097.417969 C 495.03125 1089.507812 503.105469 1076.386719 507.246094 1067.136719 C 511.382812 1057.886719 508.066406 1087.367188 506.359375 1091.507812 C 504.648438 1095.648438 500.035156 1097.644531 500.324219 1101.414062 C 500.589844 1105.226562 515.195312 1107.472656 515.070312 1096.183594 C 514.96875 1084.914062 519.625 1064.148438 528.210938 1050.492188 C 536.800781 1036.832031 542.15625 1023.980469 542.175781 1020.085938 C 542.21875 1016.171875 577.976562 959.394531 587.636719 909.75 C 595.648438 868.488281 598.46875 816.058594 620.859375 767.464844 C 616.203125 818.097656 615.523438 883.464844 623.023438 966.957031 C 648.089844 1245.453125 513.507812 1206.664062 513.507812 1206.664062 C 513.507812 1206.664062 513.546875 1195.804688 505.84375 1198.382812 C 498.140625 1200.9375 494.722656 1208.226562 499.003906 1212.925781 C 501.640625 1215.828125 515.460938 1214.839844 528.789062 1213.832031 C 537.109375 1213.234375 545.265625 1212.59375 550.355469 1212.925781 C 563.640625 1213.789062 520.40625 1223.203125 510.992188 1224.914062 C 506.542969 1225.71875 505.082031 1224.253906 503.90625 1222.773438 C 502.570312 1221.125 501.578125 1219.476562 497.152344 1221.0625 C 488.726562 1224.070312 487.449219 1240.324219 516.121094 1234.761719 C 544.792969 1229.199219 573.464844 1217.210938 590.167969 1200.089844 C 606.855469 1182.972656 677.03125 1051.128906 686.03125 993.777344 C 694.949219 936.921875 735.21875 952.949219 735.9375 953.238281 L 735.9375 953.257812 L 735.9375 953.238281 L 735.957031 953.257812 L 735.957031 953.238281 C 736.679688 952.949219 776.96875 936.921875 785.867188 993.777344 C 794.847656 1051.128906 865.042969 1182.972656 881.746094 1200.089844 C 898.433594 1217.210938 927.101562 1229.199219 955.773438 1234.761719 C 984.445312 1240.324219 983.167969 1224.070312 974.765625 1221.0625 C 970.316406 1219.476562 969.328125 1221.125 967.988281 1222.773438 C 966.816406 1224.253906 965.332031 1225.71875 960.902344 1224.914062 C 951.492188 1223.203125 908.277344 1213.789062 921.542969 1212.925781 C 926.628906 1212.59375 934.785156 1213.234375 943.109375 1213.832031 C 956.433594 1214.839844 970.253906 1215.828125 972.890625 1212.925781 C 977.175781 1208.226562 973.757812 1200.9375 966.054688 1198.382812 C 958.351562 1195.804688 958.390625 1206.664062 958.390625 1206.664062 C 958.390625 1206.664062 823.808594 1245.453125 848.855469 966.957031 C 856.332031 883.875 855.691406 818.714844 851.121094 768.183594 C 873.179688 816.574219 876.023438 868.691406 883.992188 909.75 C 893.652344 959.394531 929.429688 1016.191406 929.453125 1020.085938 C 929.472656 1023.980469 934.828125 1036.832031 943.417969 1050.511719 C 952.003906 1064.148438 956.660156 1084.914062 956.539062 1096.203125 C 956.433594 1107.472656 971.015625 1105.226562 971.304688 1101.4375 C 971.59375 1097.644531 967 1095.667969 965.292969 1091.507812 C 963.5625 1087.367188 960.222656 1057.886719 964.386719 1067.136719 C 968.523438 1076.40625 976.597656 1089.507812 981.933594 1097.417969 C 987.25 1105.328125 998.390625 1101.847656 995.117188 1096.101562 C 991.863281 1090.332031 991.449219 1095.484375 982.160156 1084.789062 C 972.890625 1074.058594 961.894531 1049.277344 965.042969 1054.28125 C 968.238281 1059.308594 981.625 1075.375 989.925781 1081.867188 C 998.226562 1088.355469 1004.921875 1085.429688 1001.046875 1078.40625 "
         id="path16" />
    </g>
    <path
       style=" stroke:none;fill-rule:nonzero;fill:rgb(90.979004%,90.589905%,90.19928%);fill-opacity:1;"
       d="M 817.03125 626.414062 C 811.632812 615.90625 807.84375 611.4375 807.761719 611.332031 C 807.84375 611.4375 811.65625 615.90625 817.03125 626.414062 M 655.050781 626.019531 C 659.109375 618.191406 662.21875 613.804688 663.496094 612.136719 C 662.21875 613.824219 659.109375 618.214844 655.050781 626.019531 "
       id="path20" />
    <path
       style="stroke:none;fill-rule:nonzero;fill:#2f42eb;fill-opacity:1"
       d="M 737.585938 668.4375 C 698.164062 668.4375 667.390625 639.636719 655.050781 626.019531 C 659.109375 618.214844 662.21875 613.824219 663.496094 612.136719 C 663.515625 612.09375 663.558594 612.074219 663.578125 612.035156 L 664.980469 611.332031 C 665.660156 611.332031 666.730469 611.332031 668.109375 611.332031 C 673.117188 616.9375 678.140625 622.25 683.148438 627.257812 C 707.308594 651.402344 720.574219 658.652344 727.824219 658.652344 C 733.199219 658.652344 735.238281 654.695312 735.9375 650.660156 C 736.660156 654.695312 738.71875 658.652344 744.074219 658.652344 C 751.304688 658.652344 764.589844 651.402344 788.75 627.257812 C 793.753906 622.25 798.78125 616.9375 803.785156 611.332031 C 806.300781 611.332031 807.761719 611.332031 807.761719 611.332031 C 807.84375 611.4375 811.632812 615.90625 817.03125 626.414062 C 788.8125 657.746094 761.582031 668.4375 737.585938 668.4375 "
       id="path22" />
    <path
       style="stroke:none;fill-rule:nonzero;fill:#2f54eb;fill-opacity:1"
       d="M 896.289062 381.949219 C 879.480469 303.441406 738.675781 300.84375 735.980469 300.804688 L 735.917969 300.804688 C 733.238281 300.84375 592.433594 303.441406 575.605469 381.949219 C 558.636719 461.199219 622.777344 566.878906 683.148438 627.257812 C 725.164062 669.28125 734.289062 660.113281 735.9375 650.660156 C 737.605469 660.113281 746.730469 669.28125 788.75 627.257812 C 849.121094 566.878906 913.261719 461.199219 896.289062 381.949219 "
       id="path24" />
    <path
       style=" stroke:none;fill-rule:nonzero;fill:rgb(10.198975%,13.328552%,27.059937%);fill-opacity:1;"
       d="M 701.5625 464.183594 C 725.207031 491.789062 730.007812 526.5 712.273438 541.703125 C 694.515625 556.90625 660.964844 546.832031 637.316406 519.230469 C 613.671875 491.605469 608.871094 456.914062 626.628906 441.710938 C 644.363281 426.507812 677.914062 436.578125 701.5625 464.183594 "
       id="path26" />
    <path
       style=" stroke:none;fill-rule:nonzero;fill:rgb(10.198975%,13.328552%,27.059937%);fill-opacity:1;"
       d="M 770.335938 464.183594 C 746.691406 491.789062 741.890625 526.5 759.625 541.703125 C 777.378906 556.90625 810.933594 546.832031 834.578125 519.230469 C 858.226562 491.605469 863.023438 456.914062 845.269531 441.710938 C 827.535156 426.507812 793.980469 436.578125 770.335938 464.183594 "
       id="path28" />
    <path
       style=" stroke:none;fill-rule:nonzero;fill:rgb(19.60907%,26.269531%,44.309998%);fill-opacity:1;"
       d="M 671.160156 458.066406 C 668.417969 458.066406 664.855469 457.285156 661.210938 455.738281 C 654.167969 452.75 649.429688 448.074219 650.601562 445.273438 C 651.160156 443.933594 652.992188 443.253906 655.527344 443.253906 C 658.265625 443.253906 661.828125 444.039062 665.496094 445.582031 C 672.539062 448.570312 677.277344 453.246094 676.082031 456.046875 C 675.527344 457.386719 673.691406 458.066406 671.160156 458.066406 "
       id="path30" />
    <path
       style=" stroke:none;fill-rule:nonzero;fill:rgb(19.60907%,26.269531%,44.309998%);fill-opacity:1;"
       d="M 798.574219 460.910156 C 797.03125 460.910156 795.875 460.496094 795.300781 459.609375 C 793.652344 457.035156 797.523438 451.617188 803.949219 447.457031 C 808.132812 444.757812 812.375 443.253906 815.257812 443.253906 C 816.804688 443.253906 817.976562 443.6875 818.535156 444.574219 C 820.203125 447.128906 816.332031 452.566406 809.902344 456.707031 C 805.722656 459.425781 801.480469 460.910156 798.574219 460.910156 "
       id="path32" />
    <path
       style=" stroke:none;fill-rule:nonzero;fill:rgb(63.529968%,24.308777%,64.709473%);fill-opacity:1;"
       d="M 459.003906 823.886719 C 457.5625 821.269531 456.328125 821.519531 454.699219 821.785156 C 453.175781 822.011719 451.300781 822.261719 448.601562 820.199219 C 443 815.914062 438.222656 807.859375 435.832031 801.660156 C 433.445312 795.457031 419.519531 784.910156 419.519531 784.910156 C 390.148438 733.738281 402.484375 693.300781 379.191406 603.523438 C 363.226562 541.949219 340.859375 513.832031 328.375 502.234375 C 323.472656 491.832031 319.828125 487.585938 319.828125 487.585938 C 319.828125 487.585938 273.957031 487.585938 268.128906 487.585938 L 268.109375 487.585938 C 262.257812 487.585938 216.386719 487.585938 216.386719 487.585938 C 216.386719 487.585938 212.804688 491.746094 207.984375 501.925781 C 195.582031 513.316406 172.945312 541.394531 156.820312 603.523438 C 133.542969 693.28125 145.863281 733.738281 116.488281 784.910156 C 116.488281 784.910156 102.566406 795.457031 100.195312 801.660156 C 97.808594 807.859375 93.027344 815.914062 87.40625 820.199219 C 84.707031 822.261719 82.855469 822.011719 81.328125 821.785156 C 79.703125 821.519531 78.464844 821.269531 77.023438 823.886719 C 74.222656 828.953125 79.042969 831.054688 85.035156 826.402344 C 91.011719 821.722656 100.648438 810.148438 102.9375 806.542969 C 105.222656 802.917969 97.292969 820.777344 90.617188 828.480469 C 83.925781 836.207031 83.636719 832.5 81.289062 836.640625 C 78.941406 840.78125 86.953125 843.292969 90.785156 837.585938 C 94.613281 831.902344 100.445312 822.445312 103.429688 815.792969 C 106.417969 809.136719 104.007812 830.355469 102.773438 833.34375 C 101.535156 836.328125 98.21875 837.75 98.445312 840.46875 C 98.652344 843.210938 109.15625 844.835938 109.054688 836.699219 C 108.992188 828.585938 112.347656 813.648438 118.527344 803.800781 C 124.707031 793.976562 128.558594 784.707031 128.582031 781.902344 C 128.601562 779.082031 154.347656 738.210938 161.308594 702.449219 C 167.078125 672.742188 169.117188 634.980469 185.222656 600.003906 C 181.886719 636.464844 181.390625 683.535156 186.789062 743.648438 C 204.832031 944.195312 107.921875 916.257812 107.921875 916.257812 C 107.921875 916.257812 107.960938 908.453125 102.402344 910.285156 C 96.859375 912.140625 94.410156 917.371094 97.5 920.769531 C 99.371094 922.851562 109.34375 922.152344 118.960938 921.429688 C 124.953125 920.976562 130.804688 920.542969 134.472656 920.769531 C 144.027344 921.390625 112.886719 928.167969 106.109375 929.402344 C 102.914062 929.980469 101.867188 928.929688 101.019531 927.878906 C 100.050781 926.683594 99.351562 925.488281 96.140625 926.621094 C 90.082031 928.785156 89.15625 940.507812 109.816406 936.488281 C 130.453125 932.492188 151.113281 923.859375 163.121094 911.519531 C 175.152344 899.203125 225.699219 804.253906 232.164062 762.953125 C 238.570312 722.019531 267.570312 733.554688 268.109375 733.78125 L 268.128906 733.78125 C 268.644531 733.554688 297.644531 722.019531 304.050781 762.953125 C 310.539062 804.253906 361.0625 899.203125 373.09375 911.519531 C 385.101562 923.859375 405.738281 932.492188 426.398438 936.488281 C 447.058594 940.507812 446.132812 928.785156 440.074219 926.621094 C 436.863281 925.488281 436.164062 926.683594 435.195312 927.878906 C 434.351562 928.929688 433.300781 929.980469 430.105469 929.402344 C 423.332031 928.167969 392.1875 921.390625 401.742188 920.769531 C 405.410156 920.542969 411.261719 920.976562 417.253906 921.429688 C 426.871094 922.152344 436.820312 922.851562 438.738281 920.769531 C 441.828125 917.371094 439.335938 912.140625 433.792969 910.285156 C 428.253906 908.453125 428.292969 916.257812 428.292969 916.257812 C 428.292969 916.257812 331.382812 944.195312 349.425781 743.648438 C 354.800781 683.824219 354.328125 636.917969 351.03125 600.519531 C 366.933594 635.375 368.972656 672.886719 374.71875 702.449219 C 381.683594 738.210938 407.429688 779.101562 407.449219 781.902344 C 407.46875 784.707031 411.300781 793.976562 417.5 803.800781 C 423.679688 813.648438 427.039062 828.585938 426.957031 836.722656 C 426.871094 844.835938 437.378906 843.210938 437.582031 840.492188 C 437.789062 837.75 434.492188 836.328125 433.257812 833.34375 C 432 830.355469 429.613281 809.136719 432.597656 815.792969 C 435.585938 822.445312 441.394531 831.902344 445.226562 837.605469 C 449.078125 843.292969 457.089844 840.78125 454.742188 836.640625 C 452.394531 832.5 452.085938 836.207031 445.410156 828.5 C 438.738281 820.777344 430.785156 802.9375 433.074219 806.542969 C 435.359375 810.148438 445.019531 821.722656 450.992188 826.402344 C 456.988281 831.078125 461.804688 828.953125 459.003906 823.886719 "
       id="path34" />
    <path
       style=" stroke:none;fill-rule:nonzero;fill:rgb(90.979004%,90.589905%,90.19928%);fill-opacity:1;"
       d="M 211.855469 494.46875 C 213.855469 490.984375 215.335938 488.925781 215.996094 488.058594 C 215.335938 488.925781 213.855469 490.984375 211.855469 494.46875 M 324.234375 494.242188 C 321.621094 489.730469 319.910156 487.691406 319.828125 487.585938 C 319.910156 487.691406 321.621094 489.730469 324.234375 494.242188 "
       id="path36" />
    <path
       style=" stroke:none;fill-rule:nonzero;fill:rgb(60.389709%,22.349548%,63.529968%);fill-opacity:1;"
       d="M 269.28125 528.683594 C 240.898438 528.683594 218.734375 507.960938 209.859375 498.15625 C 210.578125 496.773438 211.238281 495.558594 211.855469 494.46875 C 213.855469 490.984375 215.335938 488.925781 215.996094 488.058594 L 217.003906 487.585938 C 217.5 487.585938 218.261719 487.585938 219.269531 487.585938 C 222.875 491.605469 226.5 495.433594 230.085938 499.039062 C 247.488281 516.425781 257.046875 521.640625 262.257812 521.640625 C 266.128906 521.640625 267.59375 518.796875 268.109375 515.890625 C 268.621094 518.796875 270.105469 521.640625 273.957031 521.640625 C 279.167969 521.640625 288.726562 516.425781 306.128906 499.039062 C 309.734375 495.433594 313.359375 491.605469 316.964844 487.585938 C 318.777344 487.585938 319.828125 487.585938 319.828125 487.585938 C 319.910156 487.691406 321.621094 489.730469 324.234375 494.242188 C 324.9375 495.457031 325.699219 496.855469 326.5 498.441406 C 306.171875 521 286.582031 528.683594 269.28125 528.683594 "
       id="path38" />
    <g
       clip-path="url(#clip2)"
       clip-rule="nonzero"
       id="g42">
      <path
         style=" stroke:none;fill-rule:nonzero;fill:rgb(63.529968%,24.308777%,64.709473%);fill-opacity:1;"
         d="M 383.554688 322.390625 C 371.445312 265.863281 270.0625 263.988281 268.128906 263.96875 L 268.085938 263.96875 C 266.152344 263.988281 164.75 265.863281 152.636719 322.390625 C 140.421875 379.457031 186.625 455.554688 230.085938 499.039062 C 260.34375 529.300781 266.914062 522.710938 268.109375 515.890625 C 269.300781 522.710938 275.871094 529.300781 306.128906 499.039062 C 349.613281 455.554688 395.792969 379.457031 383.554688 322.390625 "
         id="path40" />
    </g>
    <path
       style=" stroke:none;fill-rule:nonzero;fill:rgb(10.198975%,13.328552%,27.059937%);fill-opacity:1;"
       d="M 243.347656 381.617188 C 260.363281 401.496094 263.824219 426.484375 251.054688 437.425781 C 238.261719 448.382812 214.121094 441.132812 197.085938 421.253906 C 180.054688 401.375 176.613281 376.363281 189.382812 365.425781 C 202.15625 354.488281 226.316406 361.71875 243.347656 381.617188 "
       id="path44" />
    <path
       style=" stroke:none;fill-rule:nonzero;fill:rgb(10.198975%,13.328552%,27.059937%);fill-opacity:1;"
       d="M 292.867188 381.617188 C 275.832031 401.496094 272.390625 426.484375 285.164062 437.425781 C 297.933594 448.382812 322.113281 441.132812 339.128906 421.253906 C 356.160156 401.375 359.601562 376.363281 346.832031 365.425781 C 334.0625 354.488281 309.898438 361.71875 292.867188 381.617188 "
       id="path46" />
    <path
       style=" stroke:none;fill-rule:nonzero;fill:rgb(19.60907%,26.269531%,44.309998%);fill-opacity:1;"
       d="M 221.453125 377.210938 C 219.476562 377.210938 216.921875 376.632812 214.285156 375.519531 C 209.21875 373.378906 205.800781 370.019531 206.644531 368 C 207.054688 367.03125 208.375 366.558594 210.207031 366.558594 C 212.164062 366.558594 214.738281 367.117188 217.375 368.226562 C 222.421875 370.371094 225.863281 373.726562 224.996094 375.746094 C 224.605469 376.714844 223.289062 377.210938 221.453125 377.210938 "
       id="path48" />
    <path
       style=" stroke:none;fill-rule:nonzero;fill:rgb(19.60907%,26.269531%,44.309998%);fill-opacity:1;"
       d="M 313.214844 379.25 C 312.105469 379.25 311.257812 378.960938 310.847656 378.320312 C 309.671875 376.46875 312.433594 372.554688 317.066406 369.566406 C 320.074219 367.628906 323.144531 366.558594 325.222656 366.558594 C 326.335938 366.558594 327.160156 366.847656 327.574219 367.488281 C 328.765625 369.339844 325.988281 373.234375 321.371094 376.222656 C 318.34375 378.179688 315.296875 379.25 313.214844 379.25 "
       id="path50" />
    <g
       clip-path="url(#clip3)"
       clip-rule="nonzero"
       id="g54">
      <path
         style=" stroke:none;fill-rule:nonzero;fill:rgb(21.958923%,72.549438%,45.489502%);fill-opacity:1;"
         d="M 1425.109375 823.886719 C 1423.667969 821.269531 1422.433594 821.519531 1420.785156 821.785156 C 1419.28125 822.011719 1417.40625 822.261719 1414.707031 820.199219 C 1409.105469 815.914062 1404.328125 807.859375 1401.9375 801.660156 C 1399.546875 795.457031 1385.625 784.910156 1385.625 784.910156 C 1356.273438 733.738281 1368.589844 693.300781 1345.292969 603.523438 C 1329.332031 541.949219 1306.941406 513.832031 1294.460938 502.234375 C 1289.578125 491.832031 1285.933594 487.585938 1285.933594 487.585938 C 1285.933594 487.585938 1240.0625 487.585938 1234.210938 487.585938 L 1234.191406 487.585938 C 1228.363281 487.585938 1182.492188 487.585938 1182.492188 487.585938 C 1182.492188 487.585938 1178.929688 491.746094 1174.109375 501.925781 C 1161.6875 513.316406 1139.050781 541.394531 1122.945312 603.523438 C 1099.648438 693.28125 1111.988281 733.738281 1082.59375 784.910156 C 1082.59375 784.910156 1068.691406 795.457031 1066.300781 801.660156 C 1063.910156 807.859375 1059.132812 815.914062 1053.53125 820.199219 C 1050.832031 822.261719 1048.957031 822.011719 1047.433594 821.785156 C 1045.808594 821.519531 1044.570312 821.269531 1043.109375 823.886719 C 1040.328125 828.953125 1045.148438 831.054688 1051.140625 826.402344 C 1057.113281 821.722656 1066.753906 810.148438 1069.039062 806.542969 C 1071.328125 802.917969 1063.398438 820.777344 1056.722656 828.480469 C 1050.027344 836.207031 1049.742188 832.5 1047.394531 836.640625 C 1045.042969 840.78125 1053.058594 843.292969 1056.886719 837.585938 C 1060.738281 831.902344 1066.546875 822.445312 1069.535156 815.792969 C 1072.5 809.136719 1070.113281 830.355469 1068.875 833.34375 C 1067.640625 836.328125 1064.34375 837.75 1064.550781 840.46875 C 1064.734375 843.210938 1075.242188 844.835938 1075.15625 836.699219 C 1075.097656 828.585938 1078.433594 813.648438 1084.632812 803.800781 C 1090.8125 793.976562 1094.664062 784.707031 1094.683594 781.902344 C 1094.707031 779.082031 1120.453125 738.210938 1127.414062 702.449219 C 1133.179688 672.742188 1135.21875 634.980469 1151.328125 600.003906 C 1147.992188 636.464844 1147.496094 683.535156 1152.894531 743.648438 C 1170.9375 944.195312 1074.023438 916.257812 1074.023438 916.257812 C 1074.023438 916.257812 1074.066406 908.453125 1068.527344 910.285156 C 1062.984375 912.140625 1060.511719 917.371094 1063.582031 920.769531 C 1065.476562 922.851562 1075.46875 922.152344 1085.066406 921.429688 C 1091.058594 920.976562 1096.910156 920.542969 1100.574219 920.769531 C 1110.113281 921.390625 1079.011719 928.167969 1072.234375 929.402344 C 1069.019531 929.980469 1067.96875 928.929688 1067.125 927.878906 C 1066.15625 926.683594 1065.457031 925.488281 1062.242188 926.621094 C 1056.1875 928.785156 1055.28125 940.507812 1075.921875 936.488281 C 1096.558594 932.492188 1117.21875 923.859375 1129.226562 911.519531 C 1141.253906 899.203125 1191.800781 804.253906 1198.269531 762.953125 C 1204.675781 722.019531 1233.675781 733.554688 1234.191406 733.78125 L 1234.210938 733.78125 C 1234.746094 733.554688 1263.75 722.019531 1270.15625 762.953125 C 1276.621094 804.253906 1327.167969 899.203125 1339.199219 911.519531 C 1351.207031 923.859375 1371.863281 932.492188 1392.503906 936.488281 C 1413.164062 940.507812 1412.234375 928.785156 1406.179688 926.621094 C 1402.96875 925.488281 1402.265625 926.683594 1401.296875 927.878906 C 1400.453125 928.929688 1399.402344 929.980469 1396.210938 929.402344 C 1389.433594 928.167969 1358.292969 921.390625 1367.847656 920.769531 C 1371.515625 920.542969 1377.363281 920.976562 1383.359375 921.429688 C 1392.976562 922.152344 1402.925781 922.851562 1404.839844 920.769531 C 1407.929688 917.371094 1405.460938 912.140625 1399.898438 910.285156 C 1394.359375 908.453125 1394.378906 916.257812 1394.378906 916.257812 C 1394.378906 916.257812 1297.488281 944.195312 1315.511719 743.648438 C 1320.90625 683.824219 1320.433594 636.917969 1317.136719 600.519531 C 1333.039062 635.375 1335.078125 672.886719 1340.824219 702.449219 C 1347.765625 738.210938 1373.535156 779.101562 1373.554688 781.902344 C 1373.574219 784.707031 1377.40625 793.976562 1383.605469 803.800781 C 1389.785156 813.648438 1393.140625 828.585938 1393.058594 836.722656 C 1392.976562 844.835938 1403.503906 843.210938 1403.6875 840.492188 C 1403.894531 837.75 1400.578125 836.328125 1399.363281 833.34375 C 1398.105469 830.355469 1395.71875 809.136719 1398.703125 815.792969 C 1401.691406 822.445312 1407.5 831.902344 1411.328125 837.605469 C 1415.179688 843.292969 1423.195312 840.78125 1420.847656 836.640625 C 1418.496094 832.5 1418.210938 836.207031 1411.515625 828.5 C 1404.839844 820.777344 1396.910156 802.9375 1399.175781 806.542969 C 1401.464844 810.148438 1411.101562 821.722656 1417.097656 826.402344 C 1423.089844 831.078125 1427.910156 828.953125 1425.109375 823.886719 "
         id="path52" />
    </g>
    <path
       style=" stroke:none;fill-rule:nonzero;fill:rgb(90.979004%,90.589905%,90.19928%);fill-opacity:1;"
       d="M 1292.605469 498.441406 C 1288.773438 490.984375 1286.078125 487.75 1285.933594 487.585938 C 1286.078125 487.75 1288.773438 490.984375 1292.605469 498.441406 M 1175.960938 498.15625 C 1178.949219 492.386719 1181.234375 489.214844 1182.101562 488.058594 C 1181.234375 489.214844 1178.949219 492.386719 1175.960938 498.15625 "
       id="path56" />
    <path
       style=" stroke:none;fill-rule:nonzero;fill:rgb(19.60907%,65.489197%,41.569519%);fill-opacity:1;"
       d="M 1235.386719 528.683594 C 1207.003906 528.683594 1184.859375 507.960938 1175.960938 498.15625 C 1178.949219 492.386719 1181.234375 489.214844 1182.101562 488.058594 L 1183.109375 487.585938 C 1183.605469 487.585938 1184.367188 487.585938 1185.375 487.585938 C 1188.980469 491.605469 1192.605469 495.433594 1196.1875 499.039062 C 1213.59375 516.425781 1223.152344 521.640625 1228.363281 521.640625 C 1232.234375 521.640625 1233.695312 518.796875 1234.210938 515.890625 C 1234.726562 518.796875 1236.210938 521.640625 1240.0625 521.640625 C 1245.273438 521.640625 1254.828125 516.425781 1272.234375 499.039062 C 1275.839844 495.433594 1279.464844 491.605469 1283.070312 487.585938 C 1284.882812 487.585938 1285.933594 487.585938 1285.933594 487.585938 C 1286.078125 487.75 1288.773438 490.984375 1292.605469 498.441406 C 1272.277344 521 1252.667969 528.683594 1235.386719 528.683594 "
       id="path58" />
    <g
       clip-path="url(#clip4)"
       clip-rule="nonzero"
       id="g62">
      <path
         style=" stroke:none;fill-rule:nonzero;fill:rgb(21.958923%,72.549438%,45.489502%);fill-opacity:1;"
         d="M 1349.679688 322.390625 C 1337.570312 265.863281 1236.167969 263.988281 1234.234375 263.96875 L 1234.191406 263.96875 C 1232.253906 263.988281 1130.875 265.863281 1118.761719 322.390625 C 1106.527344 379.457031 1152.707031 455.554688 1196.1875 499.039062 C 1226.445312 529.300781 1233.015625 522.710938 1234.210938 515.890625 C 1235.40625 522.710938 1241.976562 529.300781 1272.234375 499.039062 C 1315.695312 455.554688 1361.894531 379.457031 1349.679688 322.390625 "
         id="path60" />
    </g>
    <path
       style=" stroke:none;fill-rule:nonzero;fill:rgb(10.198975%,13.328552%,27.059937%);fill-opacity:1;"
       d="M 1209.453125 381.617188 C 1226.488281 401.496094 1229.925781 426.484375 1217.15625 437.425781 C 1204.386719 448.382812 1180.226562 441.132812 1163.191406 421.253906 C 1146.15625 401.375 1142.71875 376.363281 1155.488281 365.425781 C 1168.257812 354.488281 1192.417969 361.71875 1209.453125 381.617188 "
       id="path64" />
    <path
       style=" stroke:none;fill-rule:nonzero;fill:rgb(10.198975%,13.328552%,27.059937%);fill-opacity:1;"
       d="M 1258.96875 381.617188 C 1241.9375 401.496094 1238.496094 426.484375 1251.265625 437.425781 C 1264.035156 448.382812 1288.21875 441.132812 1305.230469 421.253906 C 1322.265625 401.375 1325.707031 376.363281 1312.9375 365.425781 C 1300.164062 354.488281 1276.003906 361.71875 1258.96875 381.617188 "
       id="path66" />
    <path
       style=" stroke:none;fill-rule:nonzero;fill:rgb(19.60907%,26.269531%,44.309998%);fill-opacity:1;"
       d="M 1187.558594 377.210938 C 1185.582031 377.210938 1183.027344 376.632812 1180.390625 375.519531 C 1175.324219 373.378906 1171.90625 370.019531 1172.75 368 C 1173.160156 367.03125 1174.480469 366.558594 1176.3125 366.558594 C 1178.269531 366.558594 1180.84375 367.117188 1183.460938 368.226562 C 1188.546875 370.371094 1191.964844 373.726562 1191.101562 375.746094 C 1190.691406 376.714844 1189.371094 377.210938 1187.558594 377.210938 "
       id="path68" />
    <path
       style=" stroke:none;fill-rule:nonzero;fill:rgb(19.60907%,26.269531%,44.309998%);fill-opacity:1;"
       d="M 1279.320312 379.25 C 1278.207031 379.25 1277.363281 378.960938 1276.953125 378.320312 C 1275.757812 376.46875 1278.539062 372.554688 1283.171875 369.566406 C 1286.199219 367.628906 1289.25 366.558594 1291.328125 366.558594 C 1292.441406 366.558594 1293.265625 366.847656 1293.699219 367.488281 C 1294.871094 369.339844 1292.089844 373.234375 1287.476562 376.222656 C 1284.449219 378.179688 1281.402344 379.25 1279.320312 379.25 "
       id="path70" />
  </g>
</svg>
